<svg height="512pt" viewBox="0 0 512 512" width="512pt" xmlns="http://www.w3.org/2000/svg"><path d="m451.707031 0h-308.230469c-33.296874 0-60.292968 26.992188-60.292968 60.292969v176.851562c0 33.296875 26.996094 60.292969 60.292968 60.292969h180.671876v63.5625c0 10.03125 12.125 15.050781 19.21875 7.960938l71.523437-71.527344h36.816406c33.300781 0 60.292969-26.992188 60.292969-60.292969v-176.847656c0-33.300781-26.992188-60.292969-60.292969-60.292969zm0 0" fill="#ff8354"/><g fill="#fff7f2"><path d="m175.265625 98.210938h.972656c4.925781 0 8.917969 3.992187 8.917969 8.914062v73.011719h33.300781c4.921875 0 8.914063 3.992187 8.914063 8.914062 0 4.925781-3.992188 8.917969-8.914063 8.917969h-43.027343c-5.015626 0-9.082032-4.066406-9.082032-9.082031v-81.761719c0-4.921875 3.992188-8.914062 8.917969-8.914062zm0 0"/><path d="m249.164062 98.210938h.976563c4.921875 0 8.914063 3.992187 8.914063 8.914062v81.925781c0 4.925781-3.992188 8.917969-8.914063 8.917969h-.976563c-4.925781 0-8.917968-3.992188-8.917968-8.917969v-81.925781c0-4.921875 3.992187-8.914062 8.917968-8.914062zm0 0"/><path d="m279.292969 98.210938h1.371093c3.808594 0 7.195313 2.417968 8.433594 6.019531l18.550782 54.03125 3.625 12.816406h1.113281l3.902343-12.816406 19.34375-54.136719c1.265626-3.550781 4.628907-5.917969 8.394532-5.917969h1.320312c6.1875 0 10.496094 6.15625 8.375 11.972657l-28.628906 78.542968c-2.027344 5.550782-7.304688 9.242188-13.210938 9.242188-5.960937 0-11.273437-3.753906-13.257812-9.375l-27.738281-78.496094c-2.050781-5.796875 2.253906-11.882812 8.40625-11.882812zm0 0"/><path d="m384.390625 116.042969v23.128906h31.070313c4.921874 0 8.914062 3.992187 8.914062 8.917969 0 4.925781-3.992188 8.917968-8.914062 8.917968h-31.070313v23.125h35.527344c4.925781 0 8.917969 3.992188 8.917969 8.917969 0 4.921875-3.992188 8.914063-8.917969 8.914063h-45.257813c-5.011718 0-9.078125-4.066406-9.078125-9.078125v-81.597657c0-5.011718 4.066407-9.078124 9.078125-9.078124h45.257813c4.925781 0 8.917969 3.992187 8.917969 8.914062 0 4.925781-3.992188 8.917969-8.917969 8.917969zm0 0"/></g><path d="m451.707031 0h-308.230469c-33.296874 0-60.292968 26.992188-60.292968 60.292969v14c0-33.300781 26.996094-60.292969 60.292968-60.292969h308.230469c33.300781 0 60.292969 26.992188 60.292969 60.292969v-14c0-33.300781-26.992188-60.292969-60.292969-60.292969zm0 0" fill="#ffac8c"/><path d="m223.875 414.53125-41.847656-13.75h-112.410156l-41.957032 13.761719c-16.503906 5.410156-27.660156 20.8125-27.660156 38.179687v59.277344h251.515625v-59.292969c0-17.359375-11.148437-32.757812-27.640625-38.175781zm0 0" fill="#5fd4e3"/><path d="m85.523438 382.820312h80.46875v34.046876h-80.46875zm0 0" fill="#5fd4e3"/><path d="m139.6875 450.910156h-27.859375l-6.1875-34.042968h40.234375zm0 0" fill="#6770e6"/><path d="m57.664062 404.484375 40.238282 43.332031 27.855468-30.949218-40.234374-34.046876zm0 0" fill="#69ebfc"/><path d="m147.15625 512-7.46875-61.089844h-27.859375l-7.472656 61.089844zm0 0" fill="#5861c7"/><path d="m171.445312 218.191406c-1.941406-7.507812-10.226562-18.144531-41.609374-18.144531-48.492188 0-55.394532 7.179687-68.300782-5.222656-10.890625-10.460938-17.28125 39.894531-2.765625 55.886719-6.128906 22.652343-1.226562 45.335937-1.226562 45.335937h136.429687s11.449219-52.992187-22.527344-77.855469zm0 0" fill="#339"/><path d="m61.535156 207.273438c12.902344 12.402343 19.808594 5.21875 68.300782 5.21875 31.382812 0 39.667968 10.636718 41.609374 18.144531 18.027344 13.191406 23.265626 34.304687 24.210938 51.21875.945312-17.488281-1.359375-46.941407-24.210938-63.664063-1.941406-7.503906-10.226562-18.144531-41.609374-18.144531-48.492188 0-55.394532 7.179687-68.300782-5.21875-7.171875-6.890625-12.394531 12.601563-10.976562 31.28125 1.039062-13.683594 5.421875-24.175781 10.976562-18.835937zm0 0" fill="#5861c7"/><path d="m156.679688 348.785156h-61.84375v41.914063l30.921874 26.167969 30.949219-26.1875zm0 0" fill="#ffe4d1"/><path d="m71.320312 298.433594s-5.882812-10.777344-17.644531-10.777344-20.097656 51.71875 17.644531 43.097656zm0 0" fill="#ffe4d1"/><path d="m180.195312 298.433594s5.878907-10.777344 17.644532-10.777344c11.761718 0 20.09375 51.71875-17.644532 43.097656zm0 0" fill="#ffe4d1"/><path d="m125.757812 229.128906c-90.121093 0-72.890624 147.804688 0 147.804688 72.890626 0 90.121094-147.804688 0-147.804688zm0 0" fill="#ffefe4"/><path d="m125.109375 220.953125s-61.011719-8.605469-61.011719 69.675781c0 0 7.683594-32.355468 25.304688-41.179687 8.210937-4.109375 11.214844 6.300781 35.707031 6.300781s27.496094-10.410156 35.707031-6.300781c17.625 8.824219 25.304688 41.179687 25.304688 41.179687 0-78.28125-61.011719-69.675781-61.011719-69.675781zm0 0" fill="#339"/><path d="m125.757812 221.085938s-61.296874-8.648438-61.296874 70.003906c0 0 7.71875-32.511719 25.425781-41.375 8.246093-4.128906 11.265625 6.332031 35.875 6.332031 24.605469 0 27.625-10.460937 35.871093-6.332031 17.710938 8.863281 25.425782 41.375 25.425782 41.375-.003906-78.652344-61.300782-70.003906-61.300782-70.003906zm0 0" fill="#339"/><path d="m193.851562 404.484375-40.238281 43.332031-27.855469-30.949218 40.234376-34.046876zm0 0" fill="#69ebfc"/><path d="m0 498h251.515625v14h-251.515625zm0 0" fill="#58c3d1"/><path d="m106.066406 498-1.710937 14h42.800781l-1.710938-14zm0 0" fill="#5058b5"/><path d="m209.429688 344.46875h-19.355469c-1.832031 0-3.316407-1.484375-3.316407-3.320312v-56.894532c0-1.835937 1.484376-3.320312 3.316407-3.320312h19.355469c1.832031 0 3.316406 1.484375 3.316406 3.320312v56.894532c.003906 1.832031-1.484375 3.320312-3.316406 3.320312zm0 0" fill="#d476e2"/><path d="m212.171875 329.21875v-33.039062c5.613281 0 10.167969 4.550781 10.167969 10.167968v12.707032c0 5.613281-4.554688 10.164062-10.167969 10.164062zm0 0" fill="#b665c2"/><path d="m39.34375 329.21875c-5.613281 0-10.164062-4.550781-10.164062-10.164062v-12.707032c0-5.617187 4.550781-10.167968 10.164062-10.167968zm0 0" fill="#b665c2"/><path d="m62.015625 344.46875h-19.351563c-1.835937 0-3.320312-1.484375-3.320312-3.320312v-56.894532c0-1.835937 1.484375-3.320312 3.320312-3.320312h19.351563c1.835937 0 3.320313 1.484375 3.320313 3.320312v56.894532c0 1.832031-1.484376 3.320312-3.320313 3.320312zm0 0" fill="#d476e2"/><path d="m204.050781 280.929688h-9.175781c0-35.308594-28.726562-64.035157-64.035156-64.035157h-9.878906c-35.308594 0-64.035157 28.726563-64.035157 64.035157h-9.175781c0-40.367188 32.84375-73.210938 73.210938-73.210938h9.878906c40.367187 0 73.210937 32.84375 73.210937 73.210938zm0 0" fill="#b665c2"/><path d="m194.875 344.46875c0 18.492188-15.046875 33.539062-33.535156 33.539062h-4.730469c-1.425781-1.980468-3.746094-3.277343-6.378906-3.277343h-11.765625c-4.34375 0-7.863282 3.523437-7.863282 7.867187s3.519532 7.863282 7.863282 7.863282h11.765625c2.628906 0 4.953125-1.296876 6.378906-3.277344h4.730469c23.546875 0 42.707031-19.160156 42.707031-42.710938h-9.171875zm0 0" fill="#b665c2"/></svg>